<?xml version="1.0" standalone="no"?>
<!DOCTYPE svg PUBLIC "-//W3C//DTD SVG 20010904//EN"
 "http://www.w3.org/TR/2001/REC-SVG-20010904/DTD/svg10.dtd">
<svg version="1.0" xmlns="http://www.w3.org/2000/svg"
 width="500.000000pt" height="500.000000pt" viewBox="0 0 500.000000 500.000000"
 preserveAspectRatio="xMidYMid meet">

<g transform="translate(0.000000,500.000000) scale(0.100000,-0.100000)"
fill="#000000" stroke="none">
<path d="M2342 2777 l-73 -73 40 -32 c22 -18 43 -32 47 -32 5 0 21 12 36 27
l28 27 109 -108 109 -109 26 29 c49 56 50 55 -100 205 -76 77 -141 139 -144
139 -3 0 -38 -33 -78 -73z"/>
<path d="M1930 2805 c0 -38 96 -265 118 -279 5 -3 19 6 32 19 22 23 22 25 6
50 -10 15 -24 45 -32 67 l-14 40 28 -7 c38 -9 149 -76 216 -131 l57 -46 25 23
c13 12 24 26 24 30 0 4 -35 33 -77 64 -128 94 -383 207 -383 170z"/>
<path d="M2810 2791 c-89 -33 -176 -76 -186 -92 -3 -6 3 -21 15 -32 l21 -21
55 27 c79 38 89 37 70 -10 -23 -56 -74 -137 -126 -202 l-46 -57 24 -28 c29
-34 33 -31 101 67 73 106 143 253 166 350 8 34 2 34 -94 -2z"/>
<path d="M2037 2472 c-75 -75 -137 -142 -137 -147 0 -6 33 -43 73 -83 l73 -72
33 46 33 47 -31 31 -31 31 107 108 108 108 -39 35 c-22 19 -42 34 -45 34 -4 0
-68 -62 -144 -138z"/>
<path d="M2385 2521 c-50 -43 -99 -88 -109 -100 -20 -22 -20 -22 7 -49 l27
-26 62 60 c35 33 84 79 109 101 l47 41 -27 26 -27 26 -89 -79z"/>
<path d="M1333 2479 c-51 -25 -93 -72 -93 -103 0 -33 42 -67 89 -73 l41 -6
-20 -27 c-28 -39 -73 -56 -116 -42 -45 14 -50 2 -13 -34 25 -24 39 -29 79 -29
55 0 91 21 128 75 28 41 28 42 -4 79 -18 22 -38 33 -67 38 l-40 6 42 39 c34
32 48 39 76 37 47 -5 51 4 15 35 -38 31 -62 33 -117 5z"/>
<path d="M3385 2478 c-2 -7 -18 -60 -36 -118 -17 -58 -35 -109 -40 -114 -4 -5
-15 -2 -24 8 -21 21 -28 20 -67 -4 -41 -25 -68 -26 -68 -2 1 34 38 98 79 135
35 32 45 36 62 26 46 -24 35 18 -13 54 -32 24 -63 18 -109 -20 -88 -75 -115
-178 -60 -233 39 -39 73 -46 134 -27 50 16 50 16 79 -8 16 -14 34 -25 39 -25
5 0 14 20 20 45 11 43 14 46 58 57 25 6 48 11 51 11 3 -1 4 -15 2 -33 -3 -23
2 -37 19 -51 40 -35 50 -27 64 51 3 19 10 44 14 55 13 32 41 130 41 145 0 16
-38 50 -56 50 -8 0 -20 -25 -30 -57 -20 -71 -28 -79 -81 -88 l-43 -7 15 42
c21 59 19 86 -7 104 -27 19 -37 20 -43 4z"/>
<path d="M4441 2456 l-32 -33 -29 28 c-37 37 -52 36 -99 -6 -40 -37 -131 -200
-131 -237 0 -22 35 -58 55 -58 7 0 27 35 44 78 17 42 40 88 50 101 18 23 18
20 -2 -52 l-20 -77 23 -20 c27 -23 39 -22 54 5 39 69 89 145 93 141 3 -2 0
-29 -7 -58 -11 -51 -10 -54 15 -75 46 -40 44 -44 75 132 l21 120 -26 23 c-35
29 -45 28 -84 -12z"/>
<path d="M855 2471 c-11 -5 -32 -10 -47 -10 -22 -1 -29 -7 -33 -28 -3 -16 -18
-70 -32 -122 -30 -107 -27 -119 33 -139 48 -16 111 -2 155 36 37 30 37 64 2
93 -16 12 -23 23 -18 25 36 14 75 47 81 70 13 52 -80 102 -141 75z m35 -81
c-24 -15 -37 -11 -16 5 11 8 22 12 25 9 3 -3 -1 -9 -9 -14z m-20 -110 c13 -9
11 -13 -10 -30 -25 -20 -50 -26 -50 -12 1 45 27 64 60 42z"/>
<path d="M1040 2465 c-4 -5 -25 -66 -46 -134 l-37 -124 28 -25 c24 -20 36 -23
71 -18 58 8 124 35 124 52 0 7 -12 21 -26 30 -24 16 -27 16 -61 0 -19 -9 -38
-14 -41 -11 -10 10 22 32 83 55 78 30 83 35 55 60 -27 23 -25 23 -68 11 -17
-5 -32 -6 -32 -1 0 20 34 39 87 50 92 19 91 18 60 46 -25 21 -36 24 -108 21
-44 -1 -84 -6 -89 -12z"/>
<path d="M1605 2469 c-61 -14 -125 -41 -125 -52 0 -12 39 -47 52 -47 5 0 18 5
29 10 10 6 19 9 19 8 0 -2 -9 -35 -20 -73 -11 -38 -20 -80 -20 -92 0 -21 33
-53 55 -53 6 0 24 55 41 123 l31 122 61 3 c34 2 62 7 62 12 0 5 -12 18 -26 29
-29 23 -87 26 -159 10z"/>
<path d="M2462 2458 l-21 -22 62 -65 c34 -37 79 -86 101 -110 l38 -43 26 25
25 26 -38 47 c-67 82 -147 164 -159 164 -6 0 -21 -10 -34 -22z"/>
<path d="M2761 2434 l-32 -46 25 -27 c14 -15 26 -31 26 -36 0 -5 -48 -57 -106
-116 l-106 -106 43 -32 c24 -17 45 -31 49 -31 3 0 68 63 144 139 l139 139 -31
39 c-17 21 -50 57 -74 81 l-44 42 -33 -46z"/>
<path d="M3667 2473 c-4 -3 -7 -18 -7 -32 0 -14 -11 -67 -25 -116 -31 -113
-31 -131 0 -151 32 -21 41 -14 56 46 12 45 16 50 41 50 22 0 33 -9 53 -40 30
-48 71 -78 86 -63 13 13 -7 55 -48 104 -19 22 -24 34 -15 37 23 7 71 53 77 73
9 28 -19 68 -60 85 -35 14 -146 20 -158 7z m143 -59 c0 -8 -63 -64 -72 -64
-11 0 -10 13 2 44 7 20 16 26 40 26 16 0 30 -3 30 -6z"/>
<path d="M4610 2465 c-4 -5 -25 -66 -46 -134 l-37 -124 28 -25 c24 -20 36 -23
71 -18 58 8 124 35 124 52 0 7 -12 21 -26 30 -24 16 -27 16 -61 0 -19 -9 -38
-14 -41 -11 -10 10 22 32 83 55 78 30 83 35 55 60 -27 23 -25 23 -68 11 -17
-5 -32 -6 -32 -1 0 20 34 39 87 50 92 19 91 18 60 46 -25 21 -36 24 -108 21
-44 -1 -84 -6 -89 -12z"/>
<path d="M3965 2424 c-49 -49 -85 -117 -85 -157 0 -37 53 -95 95 -103 97 -18
204 81 205 190 0 31 -7 45 -38 76 -33 34 -44 38 -86 38 -44 0 -52 -4 -91 -44z
m145 -41 c0 -37 -36 -109 -67 -133 -31 -24 -71 -36 -83 -24 -26 27 75 180 111
169 11 -4 19 -2 19 4 0 6 5 11 10 11 6 0 10 -12 10 -27z"/>
<path d="M2170 2405 c-28 -30 -26 -35 91 -158 l84 -89 27 29 26 28 -102 108
-102 107 -24 -25z"/>
<path d="M2122 2233 c-28 -36 -70 -105 -95 -152 -46 -87 -103 -239 -93 -248
15 -16 286 100 286 122 0 7 -9 20 -20 30 -20 18 -22 17 -73 -8 -29 -15 -60
-27 -70 -27 -16 0 -16 3 -2 38 23 55 74 136 126 201 l46 57 -23 27 c-13 15
-25 27 -28 27 -2 0 -27 -30 -54 -67z"/>
<path d="M2420 2199 l-104 -99 25 -26 25 -25 85 74 c46 41 95 86 108 101 l24
26 -23 25 c-13 14 -26 25 -29 25 -3 -1 -53 -46 -111 -101z"/>
<path d="M2172 2135 c-18 -19 -32 -41 -32 -48 0 -7 63 -75 140 -152 l140 -140
74 74 c41 41 73 77 71 81 -2 4 -22 19 -45 35 l-41 28 -30 -29 -29 -28 -109
108 -108 107 -31 -36z"/>
<path d="M2469 2104 l-24 -26 44 -38 c85 -74 288 -179 394 -204 28 -7 29 -6
22 26 -11 48 -62 176 -92 227 l-25 43 -25 -24 -24 -24 31 -65 c23 -50 27 -65
16 -67 -30 -7 -211 103 -260 157 -24 27 -27 26 -57 -5z"/>
</g>
</svg>
