<?xml version="1.0" standalone="no"?>
<!DOCTYPE svg PUBLIC "-//W3C//DTD SVG 20010904//EN"
 "http://www.w3.org/TR/2001/REC-SVG-20010904/DTD/svg10.dtd">
<svg version="1.0" xmlns="http://www.w3.org/2000/svg"
 width="500.000000pt" height="500.000000pt" viewBox="0 0 500.000000 500.000000"
 preserveAspectRatio="xMidYMid meet">

<g transform="translate(0.000000,500.000000) scale(0.100000,-0.100000)"
fill="#000000" stroke="none">
<path d="M510 2415 l0 -855 2210 0 2210 0 0 855 0 855 -2210 0 -2210 0 0 -855z
m2070 370 c159 -160 155 -149 94 -219 l-26 -29 -109 109 -109 108 -28 -27
c-28 -27 -47 -34 -54 -19 -1 4 -20 20 -42 36 l-38 29 78 78 c44 43 81 79 84
79 3 0 70 -65 150 -145z m343 107 c9 -13 -39 -147 -81 -231 -44 -87 -86 -152
-136 -213 l-31 -37 -27 26 c-34 32 -34 37 -7 66 54 57 170 250 157 262 -2 2
-30 -9 -62 -25 l-58 -30 -29 23 c-15 12 -28 27 -28 33 -1 14 151 90 229 115
64 21 67 21 73 11z m-902 -21 c129 -44 267 -122 359 -201 l34 -30 -30 -31 -31
-31 -69 56 c-73 59 -224 144 -224 126 0 -6 11 -33 25 -60 31 -61 31 -71 2 -99
-29 -26 -32 -23 -80 74 -28 56 -77 191 -77 211 0 9 41 3 91 -15z m220 -220
l44 -40 -108 -108 -108 -109 26 -24 c33 -31 32 -42 -9 -95 l-33 -44 -77 78
c-42 43 -76 82 -76 87 0 10 281 294 291 294 4 0 26 -18 50 -39z m299 -38 c0
-7 -3 -13 -7 -13 -9 0 -52 -38 -146 -129 l-68 -66 -25 28 c-13 15 -24 31 -24
36 0 11 68 81 145 149 l69 62 28 -27 c15 -15 28 -33 28 -40z m-1102 -76 c27
-29 19 -39 -24 -31 -29 5 -38 1 -81 -40 l-48 -46 43 0 c35 0 50 -6 73 -29 16
-16 29 -34 29 -39 0 -16 -44 -74 -72 -95 -39 -29 -117 -34 -147 -10 -35 28
-23 56 17 41 16 -6 41 -8 57 -4 31 8 88 63 79 77 -3 5 -25 9 -50 9 -43 0 -84
24 -84 50 0 23 32 70 63 94 66 50 113 58 145 23z m1089 8 c12 -8 58 -58 104
-111 l82 -96 -31 -30 -30 -31 -34 39 c-18 21 -65 72 -105 114 l-72 75 27 28
c30 32 31 32 59 12z m360 -72 c40 -43 73 -80 72 -83 0 -3 -64 -70 -143 -149
-142 -142 -144 -144 -168 -129 -36 24 -68 54 -68 64 0 5 47 56 105 114 l105
104 -31 32 -31 32 34 45 c18 25 37 46 42 46 5 1 42 -34 83 -76z m537 54 c10
-15 7 -33 -21 -128 -4 -15 1 -15 54 -5 l58 12 24 67 c13 37 28 67 33 67 13 0
38 -26 38 -41 0 -14 -28 -113 -41 -144 -4 -11 -11 -36 -14 -55 -12 -64 -15
-70 -42 -70 -25 0 -25 1 -21 55 3 30 1 55 -5 55 -5 0 -33 -7 -62 -15 -50 -15
-53 -18 -64 -60 -9 -35 -16 -45 -31 -45 -12 0 -23 7 -27 16 -5 13 48 211 78
292 10 26 27 25 43 -1z m1090 4 c16 -17 15 -25 -4 -137 -27 -152 -28 -154 -51
-154 -30 0 -33 24 -15 112 9 45 14 83 11 86 -3 4 -90 -126 -121 -183 -6 -11
-21 -21 -33 -23 -28 -4 -28 21 3 138 19 69 21 89 11 80 -20 -17 -67 -103 -95
-172 -18 -48 -26 -58 -46 -58 -39 0 -32 54 22 159 45 89 108 161 138 161 25 0
56 -50 50 -79 l-6 -26 17 25 c30 41 78 90 90 90 7 0 19 -8 29 -19z m-3558 -14
c22 -19 26 -29 20 -51 -6 -23 -44 -56 -81 -70 -5 -2 2 -13 18 -25 15 -13 27
-32 27 -46 0 -52 -113 -106 -187 -88 -45 11 -46 13 -10 138 14 50 28 102 31
118 5 21 12 27 34 28 15 0 36 4 47 9 36 15 73 10 101 -13z m119 14 c3 -6 18
-6 38 0 51 14 92 11 111 -10 20 -22 16 -26 -39 -35 -71 -12 -102 -26 -113 -51
-13 -29 -8 -31 51 -14 31 8 40 7 54 -6 20 -20 13 -26 -62 -55 -73 -28 -85 -37
-85 -61 0 -24 0 -24 54 3 37 18 47 19 60 8 9 -7 16 -18 16 -25 0 -20 -87 -49
-144 -50 -65 0 -67 7 -26 149 40 137 64 180 85 147z m677 -8 c29 -26 22 -32
-44 -35 l-61 -3 -31 -122 c-28 -113 -32 -123 -54 -123 -35 0 -36 21 -8 119 33
113 33 115 -4 96 -44 -23 -70 -20 -70 9 0 18 9 27 43 39 100 39 199 47 229 20z
m1525 -5 c35 -33 30 -52 -11 -44 -30 6 -37 2 -73 -37 -42 -45 -69 -107 -59
-132 8 -21 42 -18 86 6 36 20 40 21 55 5 25 -24 13 -41 -41 -60 -89 -30 -135
-18 -154 38 -21 65 30 170 109 223 42 29 59 29 88 1z m569 -11 c13 -16 24 -35
24 -44 0 -17 -57 -77 -80 -85 -12 -4 -9 -11 13 -37 36 -43 59 -89 52 -101 -12
-19 -45 -10 -62 18 -29 48 -66 82 -88 82 -16 0 -23 -11 -35 -52 -12 -42 -20
-54 -38 -56 -12 -2 -24 3 -28 11 -3 8 9 63 25 123 17 60 31 121 31 135 0 14 3
29 8 33 4 4 40 6 81 4 65 -3 76 -6 97 -31z m799 24 c3 -6 18 -6 38 0 51 14 92
11 111 -10 20 -22 16 -26 -39 -35 -71 -12 -102 -26 -113 -51 -13 -29 -8 -31
51 -14 31 8 40 7 54 -6 20 -20 13 -26 -62 -55 -73 -28 -85 -37 -85 -61 0 -24
0 -24 54 3 37 18 47 19 60 8 9 -7 16 -18 16 -25 0 -20 -87 -49 -144 -50 -65 0
-67 7 -26 149 40 137 64 180 85 147z m-515 -37 c63 -72 20 -197 -85 -245 -124
-58 -204 24 -144 148 11 24 40 63 64 87 38 40 47 44 89 44 39 0 49 -4 76 -34z
m-1745 -182 l28 -33 -23 -24 c-13 -14 -29 -25 -36 -25 -12 0 -101 91 -168 173
l-39 48 28 29 29 30 77 -83 c42 -46 89 -98 104 -115z m-145 9 c0 -3 -27 -42
-60 -86 -58 -78 -127 -201 -118 -210 3 -3 33 9 67 26 l62 31 24 -27 c14 -14
25 -30 25 -34 0 -24 -277 -140 -300 -126 -28 17 107 309 192 417 l53 67 28
-27 c15 -14 27 -28 27 -31z m329 33 c12 -15 21 -31 21 -37 0 -12 -117 -128
-176 -174 l-41 -32 -29 30 -28 29 109 105 c61 57 113 104 117 104 4 1 16 -11
27 -25z m-110 -290 l30 29 50 -34 c28 -19 51 -36 51 -39 0 -3 -36 -41 -80 -85
l-80 -80 -147 147 -146 146 18 29 c10 15 27 38 38 51 l21 23 108 -108 108
-107 29 28z m77 125 c46 -51 248 -178 262 -164 3 2 -8 32 -25 65 l-29 60 28
27 c33 31 31 33 77 -57 32 -62 86 -218 78 -226 -8 -8 -152 43 -230 82 -77 39
-160 93 -217 142 l-35 30 29 31 c35 37 37 37 62 10z"/>
<path d="M863 2470 c-12 -5 -27 -18 -33 -29 -10 -19 -9 -20 15 -11 43 16 65
30 65 40 0 12 -17 12 -47 0z"/>
<path d="M792 2318 c-5 -18 -8 -34 -7 -36 6 -7 52 11 75 28 21 17 23 21 10 30
-8 5 -27 10 -42 10 -23 0 -29 -6 -36 -32z"/>
<path d="M3721 2468 c-4 -13 -11 -36 -15 -51 -7 -28 -6 -28 21 -13 15 8 41 26
57 41 23 22 26 29 15 36 -28 17 -69 10 -78 -13z"/>
<path d="M4048 2463 c-46 -7 -126 -130 -111 -170 13 -32 97 -4 131 44 38 56
50 136 18 132 -6 -1 -23 -4 -38 -6z"/>
</g>
</svg>
