<svg width="28" height="30" viewBox="0 0 28 30" fill="none" xmlns="http://www.w3.org/2000/svg">
<path d="M4.76418 3.85183C9.8648 -1.24879 18.1346 -1.24879 23.2352 3.85183C28.3358 8.95244 28.3358 17.2222 23.2352 22.3228L21.4547 24.0837C20.1423 25.3716 18.4397 27.0276 16.3458 29.0518C15.0375 30.3169 12.9618 30.3168 11.6537 29.0515L6.41699 23.9577C5.75885 23.3115 5.20794 22.7665 4.76418 22.3228C-0.336433 17.2222 -0.336433 8.95244 4.76418 3.85183ZM21.6441 5.44282C17.4222 1.22087 10.5771 1.22087 6.35517 5.44282C2.13323 9.66475 2.13323 16.5099 6.35517 20.7318L8.58578 22.933C9.81414 24.1351 11.3583 25.6357 13.2179 27.4342C13.6539 27.8559 14.3457 27.856 14.7819 27.4344L19.8743 22.4821C20.5776 21.7917 21.1677 21.2082 21.6441 20.7318C25.866 16.5099 25.866 9.66475 21.6441 5.44282ZM13.9997 8.9978C16.4862 8.9978 18.5019 11.0136 18.5019 13.5001C18.5019 15.9867 16.4862 18.0024 13.9997 18.0024C11.5131 18.0024 9.49734 15.9867 9.49734 13.5001C9.49734 11.0136 11.5131 8.9978 13.9997 8.9978ZM13.9997 11.2478C12.7557 11.2478 11.7473 12.2562 11.7473 13.5001C11.7473 14.7441 12.7557 15.7524 13.9997 15.7524C15.2436 15.7524 16.2519 14.7441 16.2519 13.5001C16.2519 12.2562 15.2436 11.2478 13.9997 11.2478Z" fill="#000"/>
</svg>
